<svg width="1024" height="1024" viewBox="0 0 1024 1024" fill="none" xmlns="http://www.w3.org/2000/svg">
<rect width="1024" height="1024" fill="#0A0B0D"/>
<path d="M856 509.712L584.691 781.88L527.166 724.355L789.89 461.632C801.91 449.612 801.91 429.865 789.89 417.845L540.045 168H623.327C643.932 168 663.68 175.727 678.275 190.323L833.677 346.583C848.273 361.179 856 380.068 856 400.673V509.712Z" fill="#FCFCFD"/>
<path d="M783.88 440.168L726.355 496.834L464.491 234.969C458.481 228.959 449.895 225.524 442.168 225.524C434.441 225.524 425.855 228.959 419.845 234.969L170 483.955V400.673C170 380.068 178.586 361.179 193.181 346.583L348.583 190.323C363.179 175.727 382.926 168 403.532 168H511.712L783.88 440.168Z" fill="#FCFCFD"/>
<path d="M623.327 854H514.288L242.979 581.832L299.645 525.166L562.368 787.031C574.388 799.051 594.135 799.051 606.155 787.031L856 538.045V621.327C856 641.932 848.273 660.821 833.677 675.417L678.275 830.819C663.68 845.414 643.932 854 623.327 854Z" fill="#FCFCFD"/>
<path d="M486.814 854H403.532C382.926 854 363.179 845.414 348.583 830.819L193.181 675.417C178.586 660.821 170 641.932 170 621.327V512.288L442.168 240.12L499.692 297.645L236.969 559.509C224.949 572.388 224.949 592.135 236.969 604.155L486.814 854Z" fill="#FCFCFD"/>
</svg>
